<svg width="72" height="70" viewBox="0 0 72 70" fill="none" xmlns="http://www.w3.org/2000/svg">
<g opacity="0.29" filter="url(#filter0_b)">
<ellipse cx="35.6604" cy="35" rx="35.6604" ry="35" fill="url(#paint0_linear)"/>
<path d="M70.8208 35C70.8208 54.0451 55.0878 69.5 35.6604 69.5C16.233 69.5 0.5 54.0451 0.5 35C0.5 15.9549 16.233 0.5 35.6604 0.5C55.0878 0.5 70.8208 15.9549 70.8208 35Z" stroke="url(#paint1_linear)"/>
</g>
<g clip-path="url(#clip0)">
<path d="M51.332 38.1872L50.6122 37.7554L51.332 37.3208C53.2493 36.1708 53.2535 34.212 51.332 33.0594L50.6122 32.6277L51.332 32.1931C53.2543 31.0401 53.2476 28.3039 51.3344 27.1564L37.2211 18.6366C36.2535 18.0562 35.0515 18.0562 34.084 18.6366C34.0831 18.6371 34.0823 18.6376 34.0814 18.6381L19.98 27.1549C18.0583 28.3076 18.064 31.0439 19.9774 32.1915L20.6997 32.6277L19.98 33.0594C18.0652 34.208 18.057 36.1673 19.9774 37.3191L20.6997 37.7554L19.98 38.1871C18.0578 39.3401 18.0606 41.6907 19.9774 42.8404L34.084 51.3604C35.0412 51.9344 36.2432 51.9469 37.2235 51.3589L51.332 42.8421C53.2534 41.6896 53.2532 39.3396 51.332 38.1872ZM21.0284 28.8328L35.1324 20.3145L35.132 20.3147C35.4541 20.1226 35.8537 20.1231 36.1729 20.3146L50.2864 28.8344C50.9248 29.2173 50.9286 30.1286 50.284 30.5153C49.248 31.1406 36.6311 38.757 36.1755 39.0321C35.8529 39.2256 35.4523 39.2255 35.1325 39.0337C34.5025 38.6532 21.5895 30.8542 21.0259 30.5138C20.3874 30.1308 20.3834 29.2196 21.0284 28.8328ZM20.5459 35.1901C20.5469 35.1571 20.6353 34.973 21.0258 34.7388L22.6158 33.785L34.0841 40.7114C35.0433 41.2867 36.2454 41.2966 37.2235 40.7099L48.6956 33.7846L50.2864 34.7387C50.6768 34.9729 50.7652 35.157 50.7662 35.1899C50.7652 35.2231 50.6768 35.4072 50.2839 35.6429C49.2478 36.2683 36.6311 43.8847 36.1754 44.1598C35.8528 44.3532 35.4522 44.3531 35.1324 44.1613C34.6765 43.886 22.0721 36.2733 21.0258 35.6414C20.6353 35.4071 20.5469 35.2231 20.5459 35.1901ZM50.284 41.1641L36.1754 49.681C35.8529 49.8745 35.4522 49.8744 35.1324 49.6826L21.0257 41.1627C20.3886 40.7806 20.3878 40.249 21.0257 39.8665L22.6158 38.9128L34.0841 45.8392C35.0446 46.4152 36.2466 46.4236 37.2235 45.8377L48.6956 38.9123L50.2864 39.8665C50.5914 40.0494 50.7662 40.2856 50.7662 40.5145C50.7662 40.7435 50.5913 40.9798 50.284 41.1641Z" fill="#FDB400"/>
</g>
<defs>
<filter id="filter0_b" x="-250" y="-250" width="571.321" height="570" filterUnits="userSpaceOnUse" color-interpolation-filters="sRGB">
<feFlood flood-opacity="0" result="BackgroundImageFix"/>
<feGaussianBlur in="BackgroundImage" stdDeviation="125"/>
<feComposite in2="SourceAlpha" operator="in" result="effect1_backgroundBlur"/>
<feBlend mode="normal" in="SourceGraphic" in2="effect1_backgroundBlur" result="shape"/>
</filter>
<linearGradient id="paint0_linear" x1="-23.434" y1="-20" x2="101.78" y2="95.3288" gradientUnits="userSpaceOnUse">
<stop stop-color="#FBF6EB"/>
<stop offset="1" stop-color="#FBF6EB" stop-opacity="0"/>
</linearGradient>
<linearGradient id="paint1_linear" x1="35.6604" y1="0" x2="35.6604" y2="70" gradientUnits="userSpaceOnUse">
<stop stop-color="#FE6C4D"/>
<stop offset="1" stop-color="#FDB400"/>
</linearGradient>
<clipPath id="clip0">
<rect width="34.234" height="33.6" fill="white" transform="translate(18.5391 18.1992)"/>
</clipPath>
</defs>
</svg>
